<svg xmlns="http://www.w3.org/2000/svg" width="48" height="48" viewBox="0 0 256 256" fill="#3b82f6">
  <circle cx="128" cy="128" r="96" opacity="0.2"/>
  <path d="M128,24a104,104,0,1,0,104,104A104.11,104.11,0,0,0,128,24Zm0,192a88,88,0,1,1,88-88A88.1,88.1,0,0,1,128,216Zm17.11-124.35A22.57,22.57,0,0,1,152,104a8,8,0,0,1-16,0,6.73,6.73,0,0,0-2.29-5.48c-2.59-2.24-6.65-3.95-12.21-2.9-4.63.88-8.07,3.69-9.81,7.35-2.37,5.07-1.65,9.47.2,12.65,2.42,4.16,6.98,7.14,14.29,9.66C136.78,129,144,132.62,144,144a16.24,16.24,0,0,1-4.29,11.49c-3.38,3.57-8.64,5.43-15.71,5-7.77-.5-12.66-3.89-15.12-8.18A8,8,0,0,1,120,147.21a8,8,0,0,1,10.88,3c1.14,2,3,3.4,6.63,3.73,3.23.29,5.66-.43,7-1.87A.29.29,0,0,0,144.72,152C145,150,144,147,141.11,145c-3.35-2.37-8.52-4.94-15.29-7.23C116.21,134.19,104,128.8,104,112a24,24,0,0,1,6.34-16.93c4.48-5.09,11.26-7.93,19.16-7.07A24.63,24.63,0,0,1,145.11,91.65ZM136,168a8,8,0,1,1-16,0,8,8,0,0,1,16,0Zm0-80a8,8,0,1,1-16,0,8,8,0,0,1,16,0Z"/>
</svg>
